<svg width="729" height="729" viewBox="0 0 729 729" fill="none" xmlns="http://www.w3.org/2000/svg">
<g filter="url(#filter0_di_44_360)">
<path d="M7.0293 175.731C7.0293 78.6774 85.7067 0 182.76 0H545.298C642.352 0 721.029 78.6774 721.029 175.731V538.269C721.029 635.323 642.352 714 545.298 714H182.76C85.7067 714 7.0293 635.323 7.0293 538.269V175.731Z" fill="url(#paint0_linear_44_360)"/>
<path d="M182.76 6.15039H545.299C638.955 6.15059 714.879 82.0742 714.879 175.73V538.27C714.879 631.926 638.955 707.849 545.299 707.85H182.76C89.1035 707.849 13.1799 631.926 13.1797 538.27V175.73C13.1799 82.0742 89.1035 6.15059 182.76 6.15039Z" stroke="url(#paint1_linear_44_360)" stroke-width="12.3012"/>
<g filter="url(#filter1_i_44_360)">
<path d="M234.013 252.894C316.681 147.379 439.077 105.049 507.391 158.346C537.132 181.55 551.717 219.054 551.887 262.716H448.318C454.03 231.021 449.318 205.808 432.763 194.235C398.638 170.381 327.118 213.516 273.019 290.582C218.92 367.647 202.727 449.459 236.852 473.314C270.977 497.169 342.497 454.033 396.596 376.968C398.244 374.619 399.856 372.266 401.434 369.911H358.546C335.253 369.911 316.371 351.029 316.371 327.736V303.134H551.876V524.554H527.274C503.981 524.554 485.098 505.671 485.098 482.379V441.105C483.882 442.709 482.649 444.309 481.401 445.903C398.733 551.418 276.337 593.748 208.023 540.45C139.709 487.152 151.345 358.409 234.013 252.894Z" fill="url(#paint2_linear_44_360)"/>
</g>
</g>
<defs>
<filter id="filter0_di_44_360" x="6.38962e-05" y="0" width="728.058" height="728.058" filterUnits="userSpaceOnUse" color-interpolation-filters="sRGB">
<feFlood flood-opacity="0" result="BackgroundImageFix"/>
<feColorMatrix in="SourceAlpha" type="matrix" values="0 0 0 0 0 0 0 0 0 0 0 0 0 0 0 0 0 0 127 0" result="hardAlpha"/>
<feOffset dy="7.02923"/>
<feGaussianBlur stdDeviation="3.51462"/>
<feComposite in2="hardAlpha" operator="out"/>
<feColorMatrix type="matrix" values="0 0 0 0 0 0 0 0 0 0 0 0 0 0 0 0 0 0 0.25 0"/>
<feBlend mode="normal" in2="BackgroundImageFix" result="effect1_dropShadow_44_360"/>
<feBlend mode="normal" in="SourceGraphic" in2="effect1_dropShadow_44_360" result="shape"/>
<feColorMatrix in="SourceAlpha" type="matrix" values="0 0 0 0 0 0 0 0 0 0 0 0 0 0 0 0 0 0 127 0" result="hardAlpha"/>
<feOffset dy="7.02923"/>
<feGaussianBlur stdDeviation="17.5731"/>
<feComposite in2="hardAlpha" operator="arithmetic" k2="-1" k3="1"/>
<feColorMatrix type="matrix" values="0 0 0 0 0.155535 0 0 0 0 0.877747 0 0 0 0 0.201634 0 0 0 1 0"/>
<feBlend mode="normal" in2="shape" result="effect2_innerShadow_44_360"/>
</filter>
<filter id="filter1_i_44_360" x="163.523" y="135.31" width="388.364" height="435.205" filterUnits="userSpaceOnUse" color-interpolation-filters="sRGB">
<feFlood flood-opacity="0" result="BackgroundImageFix"/>
<feBlend mode="normal" in="SourceGraphic" in2="BackgroundImageFix" result="shape"/>
<feColorMatrix in="SourceAlpha" type="matrix" values="0 0 0 0 0 0 0 0 0 0 0 0 0 0 0 0 0 0 127 0" result="hardAlpha"/>
<feOffset dy="7.02923"/>
<feGaussianBlur stdDeviation="27.2383"/>
<feComposite in2="hardAlpha" operator="arithmetic" k2="-1" k3="1"/>
<feColorMatrix type="matrix" values="0 0 0 0 0.0418465 0 0 0 0 0.100962 0 0 0 0 0.0117881 0 0 0 1 0"/>
<feBlend mode="normal" in2="shape" result="effect1_innerShadow_44_360"/>
</filter>
<linearGradient id="paint0_linear_44_360" x1="327.796" y1="21.1615" x2="596.606" y2="713.467" gradientUnits="userSpaceOnUse">
<stop stop-color="#13CA2D"/>
<stop offset="1" stop-color="#90FF4D"/>
</linearGradient>
<linearGradient id="paint1_linear_44_360" x1="112.468" y1="-1.72571e-06" x2="649.325" y2="738.069" gradientUnits="userSpaceOnUse">
<stop stop-color="#B7FF9A"/>
<stop offset="0.438691" stop-color="#70F145"/>
<stop offset="1" stop-color="#AEFF8C"/>
</linearGradient>
<linearGradient id="paint2_linear_44_360" x1="504.439" y1="486.772" x2="370.883" y2="159.034" gradientUnits="userSpaceOnUse">
<stop stop-color="#041C07"/>
<stop offset="1" stop-color="#08390E"/>
</linearGradient>
</defs>
</svg>
