<svg width="24" height="24" viewBox="0 0 24 24" fill="none" xmlns="http://www.w3.org/2000/svg">
<path fill-rule="evenodd" clip-rule="evenodd" d="M2 11.6656C2 10.7639 2.35821 9.89909 2.99584 9.26146C3.63346 8.62384 4.49826 8.26562 5.4 8.26562H7.605V10.2656H5.4C5.0287 10.2656 4.6726 10.4131 4.41005 10.6757C4.1475 10.9382 4 11.2943 4 11.6656V18.8656C4 19.2369 4.1475 19.593 4.41005 19.8556C4.6726 20.1181 5.0287 20.2656 5.4 20.2656H12.6C12.9713 20.2656 13.3274 20.1181 13.5899 19.8556C13.8525 19.593 14 19.2369 14 18.8656V17.0656H16V18.8656C16 19.7674 15.6418 20.6322 15.0042 21.2698C14.3665 21.9074 13.5017 22.2656 12.6 22.2656H5.4C4.49826 22.2656 3.63346 21.9074 2.99584 21.2698C2.35821 20.6322 2 19.7674 2 18.8656V11.6656Z" fill="black"/>
<path fill-rule="evenodd" clip-rule="evenodd" d="M10 3H18C19.0609 3 20.0783 3.42143 20.8284 4.17157C21.5786 4.92172 22 5.93913 22 7V15C22 16.0609 21.5786 17.0783 20.8284 17.8284C20.0783 18.5786 19.0609 19 18 19H10C8.93913 19 7.92172 18.5786 7.17157 17.8284C6.42143 17.0783 6 16.0609 6 15V7C6 5.93913 6.42143 4.92172 7.17157 4.17157C7.92172 3.42143 8.93913 3 10 3ZM10 5C9.46957 5 8.96086 5.21071 8.58579 5.58579C8.21071 5.96086 8 6.46957 8 7V15C8 15.5304 8.21071 16.0391 8.58579 16.4142C8.96086 16.7893 9.46957 17 10 17H18C18.5304 17 19.0391 16.7893 19.4142 16.4142C19.7893 16.0391 20 15.5304 20 15V7C20 6.46957 19.7893 5.96086 19.4142 5.58579C19.0391 5.21071 18.5304 5 18 5H10Z" fill="black"/>
</svg>
